<svg xmlns="http://www.w3.org/2000/svg" viewBox="0 0 200 200" width="200" height="200"><circle cx="100" cy="100" r="100" fill="#0B6E4F"/><g id="emblem-ci"><defs><linearGradient id="gci" x1="0" y1="0" x2="1" y2="1">
      <stop offset="0" stop-color="#E9CC6A"/><stop offset="0.55" stop-color="#D4AF37"/><stop offset="1" stop-color="#B8962E"/></linearGradient></defs>
    <path d="M184.85,100.00 L160.00,124.85 L160.00,160.00 L124.85,160.00 L100.00,184.85 L75.15,160.00 L40.00,160.00 L40.00,124.85 L15.15,100.00 L40.00,75.15 L40.00,40.00 L75.15,40.00 L100.00,15.15 L124.85,40.00 L160.00,40.00 L160.00,75.15 Z M160.00,124.85 L124.85,160.00 L75.15,160.00 L40.00,124.85 L40.00,75.15 L75.15,40.00 L124.85,40.00 L160.00,75.15 Z" fill="url(#gci)" fill-rule="evenodd"/>
    <polygon points="160.00,124.85 124.85,160.00 75.15,160.00 40.00,124.85 40.00,75.15 75.15,40.00 124.85,40.00 160.00,75.15" fill="#0B6E4F"/>
    <path d="M98.22,66.05 A34.00,34.00 0 1 0 131.16,113.61 A29.00,29.00 0 0 1 98.22,66.05 Z" fill="#D4AF37"/>
    <polygon points="125.24,91.83 119.18,91.18 119.83,97.24 116.00,92.50 112.17,97.24 112.82,91.18 106.76,91.83 111.50,88.00 106.76,84.17 112.82,84.82 112.17,78.76 116.00,83.50 119.83,78.76 119.18,84.82 125.24,84.17 120.50,88.00" fill="#D4AF37"/>
  </g></svg>